<?xml version="1.0" encoding="iso-8859-1"?>
<!-- Uploaded to: SVG Repo, www.svgrepo.com, Generator: SVG Repo Mixer Tools -->
<svg fill="#000000" version="1.1" id="Layer_1" xmlns="http://www.w3.org/2000/svg" xmlns:xlink="http://www.w3.org/1999/xlink" 
	 viewBox="0 0 512 512" xml:space="preserve">
<g>
	<g>
		<rect y="234.67" width="128" height="64"/>
	</g>
</g>
<g>
	<g>
		<rect y="341.33" width="128" height="64"/>
	</g>
</g>
<g>
	<g>
		<path d="M451.925,128h-89.259V21.333C362.667,9.557,353.131,0,341.333,0C329.536,0,320,9.557,320,21.333V128H60.075
			C26.965,128,0,154.944,0,188.075V192h149.333c11.797,0,21.333,9.557,21.333,21.333v213.333c0,11.776-9.536,21.333-21.333,21.333H0
			v3.925C0,485.056,26.965,512,60.075,512h391.851C485.035,512,512,485.056,512,451.925v-263.85
			C512,154.944,485.035,128,451.925,128z M448,426.667c0,11.776-9.536,21.333-21.333,21.333H213.333
			C201.536,448,192,438.443,192,426.667V213.333c0-11.776,9.536-21.333,21.333-21.333H320v42.667h-85.333v170.667h170.667V234.667
			h-42.667V192h64c11.797,0,21.333,9.557,21.333,21.333V426.667z"/>
	</g>
</g>
</svg>